<?xml version="1.0" standalone="no"?>
<!DOCTYPE svg PUBLIC "-//W3C//DTD SVG 20010904//EN"
 "http://www.w3.org/TR/2001/REC-SVG-20010904/DTD/svg10.dtd">
<svg version="1.0" xmlns="http://www.w3.org/2000/svg"
 width="512.000000pt" height="512.000000pt" viewBox="0 0 512.000000 512.000000"
 preserveAspectRatio="xMidYMid meet">

<g transform="translate(0.000000,512.000000) scale(0.100000,-0.100000)"
fill="#000000" stroke="none">
<path d="M2431 4585 c-62 -14 -168 -59 -205 -87 -17 -13 -14 -19 49 -87 74
-81 73 -67 2 -150 -80 -94 -101 -273 -45 -393 34 -74 112 -152 186 -186 77
-36 198 -37 287 -2 75 29 156 107 193 187 24 51 27 70 27 158 0 89 -3 106 -28
157 -15 31 -47 78 -71 105 l-43 48 63 70 c35 39 64 75 64 81 0 21 -147 85
-227 99 -97 18 -170 17 -252 0z m255 -354 c151 -69 166 -303 26 -408 -126 -95
-288 -56 -361 85 -7 13 9 1 36 -26 60 -63 127 -86 204 -72 27 5 58 14 68 19
32 18 88 87 101 126 11 33 9 109 -3 121 -2 3 -18 -3 -34 -13 -55 -31 -117 13
-115 80 0 17 6 35 11 40 21 21 11 35 -34 46 -25 6 -45 13 -45 16 0 13 110 2
146 -14z"/>
<path d="M2051 4310 c-34 -38 -75 -77 -91 -87 l-30 -17 0 -178 0 -177 99 -96
c99 -96 100 -97 106 -153 3 -32 10 -66 14 -77 5 -11 97 -120 206 -243 165
-185 200 -220 212 -210 8 7 103 110 210 230 l195 219 5 67 5 67 99 97 99 96 6
174 7 174 -51 37 c-27 21 -67 60 -88 87 -21 28 -43 50 -49 50 -5 0 -21 -9 -35
-20 l-25 -19 37 -73 c51 -99 61 -149 56 -270 -3 -94 -7 -110 -41 -181 -48
-103 -138 -195 -234 -240 -66 -31 -72 -32 -203 -32 l-136 0 -79 39 c-258 127
-351 436 -210 694 19 34 35 64 35 65 0 2 -13 13 -29 24 l-28 22 -62 -69z"/>
<path d="M2817 3142 c-94 -109 -191 -219 -214 -246 l-41 -50 -34 35 c-19 19
-114 125 -212 237 -98 112 -185 206 -194 210 -22 8 -213 -59 -220 -77 -7 -18
131 -291 228 -455 92 -155 231 -359 335 -490 l87 -108 25 23 c39 37 191 240
290 389 141 210 366 632 347 649 -11 9 -86 37 -165 61 l-59 18 -173 -196z"/>
<path d="M1531 3145 c-79 -29 -147 -57 -152 -62 -5 -5 -1 -74 11 -163 11 -85
20 -158 20 -161 0 -8 158 -163 170 -167 6 -2 -10 45 -35 104 -24 59 -43 110
-41 112 2 2 81 -149 175 -336 246 -489 328 -672 461 -1024 100 -264 142 -353
171 -369 50 -28 203 -98 206 -95 7 7 -68 802 -83 884 -4 18 -59 115 -123 215
-232 360 -413 679 -546 960 -37 80 -73 148 -79 150 -7 3 -76 -19 -155 -48z"/>
<path d="M3418 3177 c-6 -12 -37 -74 -68 -137 -151 -312 -300 -576 -498 -885
-154 -240 -158 -249 -171 -330 -18 -118 -84 -806 -79 -830 2 -13 24 -6 119 41
l116 56 145 367 c80 201 182 445 226 541 69 153 401 814 402 800 0 -5 -22 -65
-60 -159 l-21 -54 79 71 c44 40 84 77 89 84 6 7 19 86 30 176 l19 163 -25 14
c-14 7 -86 33 -158 58 l-133 46 -12 -22z"/>
<path d="M3619 2462 c-134 -137 -210 -244 -293 -410 -52 -103 -89 -192 -80
-192 3 0 47 39 97 86 51 47 133 117 183 154 l90 69 37 178 c20 97 35 179 33
180 -1 1 -31 -28 -67 -65z"/>
<path d="M1450 2511 c0 -13 70 -344 73 -346 43 -28 198 -153 275 -223 56 -51
102 -89 102 -84 0 19 -158 321 -202 387 -75 113 -248 298 -248 266z"/>
<path d="M1646 1813 c109 -236 211 -392 343 -524 75 -75 227 -196 236 -187 7
6 -149 291 -212 388 -40 60 -106 135 -225 253 -92 92 -173 167 -178 167 -5 0
11 -44 36 -97z"/>
<path d="M3346 1748 c-89 -90 -183 -192 -208 -228 -83 -120 -235 -396 -224
-408 8 -7 72 39 160 114 74 63 185 189 244 275 31 46 212 389 212 402 0 22
-39 -10 -184 -155z"/>
<path d="M2150 650 c-272 -16 -415 -50 -337 -79 90 -34 702 -58 1050 -42 507
24 602 69 232 111 -121 13 -776 21 -945 10z"/>
</g>
</svg>
